<?xml version="1.0" standalone="no"?>
<!DOCTYPE svg PUBLIC "-//W3C//DTD SVG 20010904//EN"
 "http://www.w3.org/TR/2001/REC-SVG-20010904/DTD/svg10.dtd">
<svg version="1.0" xmlns="http://www.w3.org/2000/svg"
 width="1024.000000pt" height="1024.000000pt" viewBox="0 0 1024.000000 1024.000000"
 preserveAspectRatio="xMidYMid meet">

<g transform="translate(0.000000,1024.000000) scale(0.100000,-0.100000)"
fill="#000000" stroke="none">
<path d="M0 5120 l0 -5120 4010 0 c2206 0 4010 3 4010 6 0 3 -24 40 -52 82
-87 126 -214 245 -383 359 -272 183 -408 327 -518 548 -180 362 -162 831 46
1175 108 179 237 312 442 457 271 191 403 336 516 562 95 193 124 331 123 581
0 160 -3 184 -29 280 -15 58 -36 123 -45 145 -81 189 -168 318 -299 443 -72
69 -137 119 -291 223 -213 143 -357 301 -456 500 -109 218 -150 459 -119 708
21 167 52 277 115 407 109 224 260 392 500 555 328 222 532 502 602 824 25
116 34 333 19 448 -35 261 -165 520 -359 714 -80 80 -146 133 -282 223 -238
158 -380 314 -485 531 -50 104 -88 227 -104 334 -6 39 -13 85 -16 103 l-6 32
-3469 0 -3470 0 0 -5120z"/>
</g>
</svg>
