<?xml version="1.0" encoding="utf-8"?>
<!-- Generator: Adobe Illustrator 22.0.0, SVG Export Plug-In . SVG Version: 6.00 Build 0)  -->
<svg version="1.1" id="Layer_1" xmlns="http://www.w3.org/2000/svg" xmlns:xlink="http://www.w3.org/1999/xlink" x="0px" y="0px"
	 viewBox="0 0 360 800" style="enable-background:new 0 0 360 800;" xml:space="preserve">
<style type="text/css">
	.st0{fill:#9E1C20;}
	.st1{fill:#FFFFFF;}
	.st2{fill:#DDDDDD;}
	.st3{fill:#9F1B28;}
	.st4{clip-path:url(#SVGID_2_);fill:#9E1C20;}
	.st5{clip-path:url(#SVGID_4_);fill:#9E1C20;}
	.st6{clip-path:url(#SVGID_6_);fill:#9E1C20;}
	.st7{clip-path:url(#SVGID_8_);fill:#9E1C20;}
	.st8{clip-path:url(#SVGID_10_);fill:#9E1C20;}
	.st9{clip-path:url(#SVGID_12_);fill:#9E1C20;}
	.st10{clip-path:url(#SVGID_14_);fill:#9E1C20;}
	.st11{fill:none;}
	.st12{opacity:0.97;fill:#9E1C20;}
	.st13{font-family:'ScholarlyAmbition-Regular';}
	.st14{font-size:26px;}
</style>
<g id="XMLID_2_">
	<g>
		<rect x="0" y="0" class="st0" width="360" height="800"/>
	</g>
</g>
<g>
	<path class="st1" d="M43.6,415.4c-2.1,0-3.8-0.5-5.1-1.4c-1.3-0.9-2.3-2.1-3-3.6c-0.7-1.5-1.2-3.1-1.5-4.9
		c-0.2-1.8-0.4-3.5-0.4-5.3c0-2.2,0.2-4.4,0.5-6.5c0.4-2.1,0.9-4,1.7-5.6c0.8-1.6,1.8-2.9,3-3.8c1.2-1,2.6-1.4,4.3-1.4
		c1.3,0,2.5,0.2,3.6,0.6c1.1,0.4,2,1.1,2.8,1.9c0.8,0.8,1.4,1.8,1.8,3c0.4,1.2,0.6,2.5,0.6,4c0,0.4,0,0.9-0.1,1.4
		c-0.1,0.6-0.2,1.1-0.4,1.6c-0.2,0.5-0.4,1-0.8,1.3c-0.3,0.4-0.8,0.6-1.3,0.6c-0.3,0-0.6,0-1-0.1c-0.4,0-0.8-0.1-1.2-0.3
		c-0.4-0.1-0.7-0.3-1-0.5c-0.3-0.2-0.4-0.5-0.4-0.9c0-0.6,0-1.2,0.1-1.8c0.1-0.6,0.1-1.2,0.1-1.8c0-0.2,0-0.5-0.1-0.9
		c0-0.4-0.1-0.8-0.3-1.1c-0.1-0.4-0.4-0.7-0.6-1c-0.3-0.3-0.6-0.4-1.1-0.4c-0.5,0-0.9,0.3-1.2,0.8c-0.3,0.5-0.6,1.2-0.9,2.1
		c-0.2,0.8-0.4,1.8-0.5,2.8c-0.1,1-0.2,2-0.3,3c-0.1,0.9-0.1,1.8-0.1,2.6c0,0.8,0,1.3,0,1.6c0,0.4,0,1.1,0,2c0,0.9,0.1,1.8,0.3,2.6
		c0.2,0.9,0.4,1.6,0.8,2.3c0.3,0.7,0.9,1,1.5,1c0.6,0,1.1-0.2,1.7-0.7c0.6-0.4,0.8-1.1,0.8-2.1c0-0.5,0-0.9,0.1-1.4
		c0.1-0.4,0.2-0.9,0.3-1.2c0.2-0.4,0.4-0.7,0.6-0.9c0.3-0.2,0.6-0.3,1-0.3c1.4,0,2.4,0.4,3,1.1c0.6,0.7,0.8,1.8,0.8,3.3
		c0,1.1-0.2,2.2-0.6,3.2c-0.4,1-1,1.9-1.7,2.7c-0.7,0.8-1.6,1.4-2.7,1.8C46,415.2,44.9,415.4,43.6,415.4z"/>
	<path class="st1" d="M67.4,415.4c-1.5,0-2.9-0.3-4.2-1c-1.3-0.7-2.3-1.7-3.2-2.9c-0.9-1.3-1.6-2.8-2-4.6c-0.5-1.8-0.7-3.8-0.7-6.1
		c0-5.9,0.9-10.4,2.6-13.4c1.7-3,4.4-4.5,8.1-4.5c1.8,0,3.3,0.4,4.7,1.1c1.4,0.8,2.5,1.8,3.4,3.2c0.9,1.4,1.6,3,2.1,5
		c0.5,2,0.7,4.1,0.7,6.5c0,2.5-0.3,4.7-0.8,6.8c-0.6,2-1.3,3.8-2.3,5.3c-1,1.5-2.2,2.6-3.6,3.4C70.7,415,69.1,415.4,67.4,415.4z
		 M67.6,409.2c0.5,0,0.9-0.2,1.4-0.6c0.5-0.4,0.9-1,1.2-1.8c0.4-0.8,0.7-1.8,0.9-3c0.2-1.2,0.3-2.6,0.3-4.1c0-1.6-0.1-3-0.3-4.4
		c-0.2-1.4-0.4-2.5-0.8-3.5c-0.3-1-0.7-1.8-1.1-2.4c-0.4-0.6-0.9-0.9-1.4-0.9c-0.5,0-0.9,0.3-1.3,0.8c-0.4,0.5-0.7,1.3-1,2.3
		c-0.3,1-0.5,2.1-0.7,3.5c-0.2,1.3-0.2,2.8-0.2,4.4c0,3.3,0.3,5.8,0.8,7.4C65.9,408.4,66.7,409.2,67.6,409.2z"/>
	<path class="st1" d="M88.1,415.2c-0.5,0-0.9-0.1-1.4-0.4c-0.5-0.3-0.8-0.6-1.1-1c-0.1-0.1-0.1-0.7-0.2-1.8c-0.1-1.1-0.1-2.4-0.2-4
		c0-1.6-0.1-3.3-0.1-5.2c0-1.9-0.1-3.7-0.1-5.4c0-1.7-0.1-3.2-0.1-4.6c0-1.3,0-2.3,0-2.8c0-0.4,0-0.9,0-1.4c0-0.5,0.1-1.1,0.1-1.6
		c0.1-0.5,0.2-1.1,0.4-1.5c0.2-0.5,0.4-0.9,0.6-1.2c0.2-0.3,0.5-0.4,0.9-0.5s0.7-0.1,1-0.1c0.5,0,1.1,0.1,1.9,0.2
		c0.7,0.1,1.3,0.3,1.8,0.6c0.1,0.1,0.4,0.5,0.8,1.2c0.4,0.8,0.9,1.7,1.5,2.9c0.6,1.1,1.2,2.4,1.9,3.7c0.6,1.3,1.3,2.6,1.9,3.8
		c0.6,1.2,1.1,2.3,1.5,3.2c0.4,0.9,0.7,1.6,0.8,1.9c-0.2-0.8-0.3-1.6-0.4-2.7c-0.1-1-0.1-2-0.2-3.1c0-1.1-0.1-2.1-0.1-3.2
		c0-1,0-2,0-2.8c0-0.4,0-0.9,0-1.6c0-0.7,0.1-1.3,0.3-1.9c0.1-0.6,0.4-1.1,0.7-1.6c0.3-0.4,0.8-0.7,1.4-0.7c0.9,0,1.6,0.1,2.1,0.2
		c0.6,0.1,1,0.4,1.3,0.7c0.3,0.3,0.6,0.8,0.7,1.3c0.1,0.6,0.2,1.3,0.2,2.1v3.7c0,0.5,0,1.3,0,2.4c0,1.1,0,2.3,0,3.7
		c0,1.4,0,2.8-0.1,4.3c0,1.5-0.1,2.8-0.1,4.1c0,1.3-0.1,2.4-0.1,3.3c0,0.9-0.1,1.5-0.1,1.8c-0.1,0.7-0.3,1.2-0.4,1.7
		c-0.1,0.5-0.3,0.9-0.5,1.2c-0.2,0.3-0.5,0.5-0.8,0.7c-0.3,0.1-0.8,0.2-1.3,0.2c-0.6,0-1.1,0-1.4-0.1c-0.4-0.1-0.7-0.3-1-0.5
		c-0.3-0.2-0.5-0.5-0.8-0.8c-0.2-0.3-0.5-0.7-0.8-1.1c-0.6-0.9-1.3-1.9-2-3c-0.7-1.1-1.4-2.3-2-3.5c-0.7-1.2-1.3-2.4-1.9-3.6
		c-0.6-1.2-1.2-2.3-1.7-3.4c0.1,0.5,0.2,1.2,0.3,2.1c0.1,0.8,0.2,1.7,0.2,2.6c0,0.9,0.1,1.8,0.1,2.7c0,0.9,0,1.6,0,2.3
		c0,0.7,0,1.4-0.1,2.2c-0.1,0.8-0.2,1.5-0.5,2.2c-0.2,0.7-0.6,1.2-1.1,1.7C89.7,415,89,415.2,88.1,415.2z"/>
	<path class="st1" d="M116.3,414.8c-0.8,0-1.6-0.2-2.2-0.7c-0.3-0.2-0.5-0.8-0.7-1.8c-0.2-1-0.3-2.3-0.4-3.7c-0.1-1.5-0.2-3-0.2-4.7
		c-0.1-1.7-0.1-3.3-0.1-4.8c0-1.5,0-2.9,0-4.1s0-2,0-2.5v-3.3c0-0.6,0.1-1.3,0.2-2c0.1-0.7,0.5-1.3,1-1.8c0.3-0.3,0.6-0.5,1.1-0.6
		c0.5-0.2,1-0.3,1.6-0.4c0.5-0.1,1.1-0.2,1.6-0.2c0.5,0,0.9,0,1.3,0c1.6,0,3.1,0.2,4.6,0.5c1.5,0.3,2.8,0.9,4,1.7
		c1.2,0.8,2.1,1.8,2.8,3c0.7,1.3,1.1,2.8,1.1,4.6c0,1.2-0.2,2.4-0.5,3.4c-0.3,1.1-0.8,2-1.5,2.9c-0.6,0.8-1.4,1.5-2.3,2.1
		c-0.9,0.6-1.9,0.9-2.9,1.1c0.8,0.6,1.7,1.2,2.5,1.8c0.8,0.6,1.6,1.3,2.4,1.9c0.7,0.6,1.4,1.3,1.9,1.9c0.5,0.6,0.9,1.2,1,1.8
		c0.1,0.3,0.1,0.7-0.1,1.2c-0.1,0.5-0.4,0.9-0.6,1.3s-0.6,0.8-1,1.1s-0.8,0.4-1.2,0.4c-0.9,0-1.8-0.4-2.7-1.2
		c-0.9-0.8-1.8-1.8-2.7-2.9c-0.9-1.1-1.6-2.3-2.4-3.4s-1.3-2.1-1.7-2.8c-0.2,0-0.3,0-0.3,0v1.3l-0.1,3.5v1.3c0,0.6,0,1.2-0.1,1.7
		c-0.1,0.5-0.2,1-0.5,1.4c-0.2,0.4-0.6,0.7-1,0.9C117.6,414.7,117,414.8,116.3,414.8z M119.9,399.8c1.8-0.5,3.1-1.2,3.9-2.1
		c0.8-0.9,1.2-2.1,1.2-3.5c0-1-0.2-1.8-0.5-2.4c-0.3-0.6-0.8-1-1.3-1.3s-1.1-0.5-1.7-0.5c-0.6-0.1-1.2-0.1-1.8-0.1
		c0,0.5,0,1.2,0,2.2c0,1,0,2,0,3.1c0,1.1,0,2,0,2.9C119.7,398.9,119.8,399.5,119.9,399.8z"/>
	<path class="st1" d="M135.2,386c0-0.4,0-0.6,0.1-0.8c0.1-0.2,0.2-0.4,0.5-0.7c0.1-0.1,0.5-0.2,1.1-0.3c0.6-0.1,1.3-0.2,2.1-0.2
		c0.8-0.1,1.7-0.1,2.7-0.2c1,0,1.9-0.1,2.8-0.1c0.9,0,1.7,0,2.4,0c0.7,0,1.2,0,1.4,0c0.5,0,1,0.1,1.6,0.2c0.6,0.1,1.1,0.3,1.6,0.5
		s0.9,0.6,1.2,1c0.3,0.4,0.5,0.9,0.5,1.5c0,0.6-0.2,1-0.6,1.3c-0.4,0.3-0.9,0.5-1.4,0.6c-0.6,0.1-1.1,0.2-1.7,0.2
		c-0.6,0-1.1,0-1.5,0c0,2.3,0,4.6,0.1,6.9c0.1,2.3,0.1,4.6,0.1,6.9c0,0.4,0,1.1,0,2.1c0,1,0,2-0.1,3.1c-0.1,1.1-0.2,2.1-0.3,3
		c-0.1,0.9-0.3,1.6-0.6,1.9c-0.4,0.5-0.8,0.9-1.2,1.2c-0.4,0.2-1,0.4-1.6,0.4c-0.3,0-0.6-0.1-1-0.2c-0.4-0.2-0.7-0.3-0.9-0.5
		c-0.3-0.3-0.6-0.6-0.8-1.1s-0.3-1-0.4-1.6c-0.1-0.6-0.1-1.1-0.1-1.7c0-0.6,0-1,0-1.4c-0.1-3-0.2-6.1-0.3-9.2
		c-0.1-3.1-0.1-6.2-0.1-9.2c-0.6,0-1.3,0-1.9,0c-0.6,0-1.2-0.2-1.7-0.4c-0.5-0.2-0.9-0.5-1.2-1C135.3,387.4,135.2,386.8,135.2,386z"
		/>
	<path class="st1" d="M161.7,414.8c-0.8,0-1.6-0.2-2.2-0.7c-0.3-0.2-0.5-0.8-0.7-1.8c-0.2-1-0.3-2.3-0.4-3.7c-0.1-1.5-0.2-3-0.2-4.7
		s-0.1-3.3-0.1-4.8c0-1.5,0-2.9,0-4.1s0-2,0-2.5v-3.3c0-0.6,0.1-1.3,0.2-2c0.1-0.7,0.5-1.3,1-1.8c0.3-0.3,0.6-0.5,1.1-0.6
		c0.5-0.2,1-0.3,1.6-0.4c0.5-0.1,1.1-0.2,1.6-0.2c0.5,0,0.9,0,1.3,0c1.6,0,3.1,0.2,4.6,0.5c1.5,0.3,2.8,0.9,4,1.7
		c1.2,0.8,2.1,1.8,2.8,3c0.7,1.3,1.1,2.8,1.1,4.6c0,1.2-0.2,2.4-0.5,3.4c-0.3,1.1-0.8,2-1.5,2.9c-0.6,0.8-1.4,1.5-2.3,2.1
		c-0.9,0.6-1.9,0.9-2.9,1.1c0.8,0.6,1.7,1.2,2.5,1.8c0.8,0.6,1.6,1.3,2.4,1.9c0.7,0.6,1.4,1.3,1.9,1.9c0.5,0.6,0.9,1.2,1,1.8
		c0.1,0.3,0.1,0.7-0.1,1.2c-0.1,0.5-0.4,0.9-0.6,1.3s-0.6,0.8-1,1.1s-0.8,0.4-1.2,0.4c-0.9,0-1.8-0.4-2.7-1.2
		c-0.9-0.8-1.8-1.8-2.7-2.9c-0.9-1.1-1.6-2.3-2.4-3.4s-1.3-2.1-1.7-2.8c-0.2,0-0.3,0-0.3,0v1.3l-0.1,3.5v1.3c0,0.6,0,1.2-0.1,1.7
		c-0.1,0.5-0.2,1-0.5,1.4c-0.2,0.4-0.6,0.7-1,0.9C162.9,414.7,162.4,414.8,161.7,414.8z M165.2,399.8c1.8-0.5,3.1-1.2,3.9-2.1
		c0.8-0.9,1.2-2.1,1.2-3.5c0-1-0.2-1.8-0.5-2.4c-0.3-0.6-0.8-1-1.3-1.3s-1.1-0.5-1.7-0.5c-0.6-0.1-1.2-0.1-1.8-0.1
		c0,0.5,0,1.2,0,2.2c0,1,0,2,0,3.1c0,1.1,0,2,0,2.9C165.1,398.9,165.1,399.5,165.2,399.8z"/>
	<path class="st1" d="M211.7,414.8c-0.8,0-1.6-0.2-2.2-0.7c-0.3-0.2-0.5-0.8-0.7-1.8c-0.2-1-0.3-2.3-0.4-3.7c-0.1-1.5-0.2-3-0.2-4.7
		s-0.1-3.3-0.1-4.8c0-1.5,0-2.9,0-4.1s0-2,0-2.5v-3.3c0-0.6,0.1-1.3,0.2-2c0.1-0.7,0.5-1.3,1-1.8c0.3-0.3,0.6-0.5,1.1-0.6
		c0.5-0.2,1-0.3,1.6-0.4c0.5-0.1,1.1-0.2,1.6-0.2c0.5,0,0.9,0,1.3,0c1.6,0,3.1,0.2,4.6,0.6c1.5,0.4,2.8,1.1,4,2
		c1.2,0.9,2.1,2,2.8,3.2c0.7,1.3,1.1,2.8,1.1,4.5c0,1.8-0.3,3.5-0.8,5c-0.6,1.5-1.4,2.9-2.4,3.9c-1,1.1-2.3,1.9-3.8,2.5
		c-1.5,0.5-3.2,0.7-5,0.5v1l-0.1,2.2v1c0,0.6,0,1.2-0.1,1.7c-0.1,0.5-0.2,1-0.5,1.4c-0.2,0.4-0.6,0.7-1,0.9
		C212.9,414.7,212.4,414.8,211.7,414.8z M215.2,401.8c1.8-0.5,3.1-1.4,3.9-2.7c0.8-1.3,1.2-2.8,1.2-4.4c0-0.9-0.2-1.7-0.5-2.3
		c-0.3-0.6-0.8-1.1-1.3-1.5c-0.5-0.4-1.1-0.6-1.7-0.8c-0.6-0.1-1.2-0.2-1.8-0.2c0,0.3,0,0.8,0,1.4c0,0.7,0,1.4,0,2.2
		c0,0.8,0,1.7,0,2.6c0,0.9,0,1.7,0,2.5c0,0.8,0,1.4,0.1,2S215.2,401.6,215.2,401.8z"/>
	<path class="st1" d="M249.6,414.8c-0.7,0-1.2-0.2-1.6-0.7c-0.4-0.5-0.6-1.1-0.8-1.7c-0.1-0.7-0.2-1.4-0.3-2.1
		c0-0.7-0.1-1.3-0.1-1.8c-0.2,0.6-0.5,1.3-0.8,1.9c-0.3,0.7-0.7,1.3-1.2,1.8c-0.5,0.6-1.1,1-1.8,1.4c-0.7,0.4-1.7,0.5-2.8,0.5
		s-2.1-0.3-2.9-0.8c-0.8-0.6-1.5-1.3-2.1-2.2c-0.6-0.9-1-2-1.3-3.2c-0.3-1.2-0.6-2.4-0.8-3.6c-0.2-1.2-0.3-2.5-0.3-3.7
		c0-1.2-0.1-2.3-0.1-3.3c0-1.8-0.1-3.4-0.1-5.1c0-1.6,0-3.1,0.1-4.3c0.1-1.2,0.3-2.2,0.7-3c0.3-0.7,0.9-1.1,1.6-1.1
		c1.1,0,2,0.1,2.6,0.3c0.6,0.2,1.1,0.5,1.5,1c0.3,0.5,0.5,1.1,0.6,2c0.1,0.8,0.1,1.9,0.1,3.2c0,0.6,0,1.5,0,2.6c0,1.1,0,2.3,0.1,3.6
		c0,1.3,0.1,2.6,0.2,3.9c0.1,1.3,0.2,2.5,0.4,3.5c0.1,1.1,0.3,1.9,0.6,2.6s0.5,1,0.9,1c0.5,0,1-0.2,1.4-0.7c0.5-0.4,0.9-1,1.2-1.6
		c0.3-0.6,0.6-1.3,0.8-2c0.2-0.7,0.3-1.3,0.3-1.8c0.1-1.9,0.1-3.8,0.1-5.6c0-1.9,0-3.8,0-5.7c0-0.8,0-1.6,0-2.3c0-0.8,0.1-1.4,0.3-2
		c0.2-0.6,0.5-1,0.9-1.4c0.4-0.3,1-0.5,1.8-0.5c1.1,0,2,0.1,2.6,0.3c0.6,0.2,1,0.6,1.2,1.1c0.2,0.5,0.4,1.1,0.4,1.8
		c0,0.7,0,1.5,0,2.4c0,0.8,0,1.8,0,3c0,1.2-0.1,2.3-0.1,3.5c0,1.2,0,2.4-0.1,3.5c0,1.2,0,2.1,0,2.9c0,1.8,0.1,3.5,0.3,5.1
		c0.2,1.6,0.3,3.3,0.3,5.1c0,0.3-0.1,0.6-0.4,0.9c-0.3,0.3-0.6,0.5-1,0.6c-0.4,0.2-0.8,0.3-1.2,0.4S249.8,414.8,249.6,414.8z"/>
	<path class="st1" d="M262.1,415.2c-0.5,0-0.9-0.1-1.4-0.4c-0.5-0.3-0.8-0.6-1.1-1c-0.1-0.1-0.1-0.7-0.2-1.8c-0.1-1.1-0.1-2.4-0.2-4
		c0-1.6-0.1-3.3-0.1-5.2c0-1.9-0.1-3.7-0.1-5.4c0-1.7-0.1-3.2-0.1-4.6c0-1.3,0-2.3,0-2.8c0-0.4,0-0.9,0-1.4c0-0.5,0.1-1.1,0.1-1.6
		c0.1-0.5,0.2-1.1,0.4-1.5c0.2-0.5,0.4-0.9,0.6-1.2c0.2-0.3,0.5-0.4,0.9-0.5c0.4,0,0.7-0.1,1-0.1c0.5,0,1.1,0.1,1.9,0.2
		c0.7,0.1,1.3,0.3,1.8,0.6c0.1,0.1,0.4,0.5,0.8,1.2c0.4,0.8,0.9,1.7,1.5,2.9c0.6,1.1,1.2,2.4,1.9,3.7c0.6,1.3,1.3,2.6,1.9,3.8
		c0.6,1.2,1.1,2.3,1.5,3.2c0.4,0.9,0.7,1.6,0.8,1.9c-0.2-0.8-0.3-1.6-0.4-2.7c-0.1-1-0.1-2-0.2-3.1c0-1.1-0.1-2.1-0.1-3.2
		c0-1,0-2,0-2.8c0-0.4,0-0.9,0-1.6c0-0.7,0.1-1.3,0.3-1.9c0.1-0.6,0.4-1.1,0.7-1.6c0.3-0.4,0.8-0.7,1.4-0.7c0.9,0,1.6,0.1,2.1,0.2
		c0.6,0.1,1,0.4,1.3,0.7c0.3,0.3,0.6,0.8,0.7,1.3c0.1,0.6,0.2,1.3,0.2,2.1v3.7c0,0.5,0,1.3,0,2.4s0,2.3,0,3.7c0,1.4,0,2.8-0.1,4.3
		c0,1.5-0.1,2.8-0.1,4.1c0,1.3-0.1,2.4-0.1,3.3c0,0.9-0.1,1.5-0.1,1.8c-0.1,0.7-0.3,1.2-0.4,1.7c-0.1,0.5-0.3,0.9-0.5,1.2
		c-0.2,0.3-0.5,0.5-0.8,0.7c-0.3,0.1-0.8,0.2-1.3,0.2c-0.6,0-1.1,0-1.4-0.1c-0.4-0.1-0.7-0.3-1-0.5c-0.3-0.2-0.5-0.5-0.8-0.8
		c-0.2-0.3-0.5-0.7-0.8-1.1c-0.6-0.9-1.3-1.9-2-3c-0.7-1.1-1.4-2.3-2-3.5c-0.7-1.2-1.3-2.4-1.9-3.6c-0.6-1.2-1.2-2.3-1.7-3.4
		c0.1,0.5,0.2,1.2,0.3,2.1c0.1,0.8,0.2,1.7,0.2,2.6c0,0.9,0.1,1.8,0.1,2.7c0,0.9,0,1.6,0,2.3c0,0.7,0,1.4-0.1,2.2
		c-0.1,0.8-0.2,1.5-0.5,2.2s-0.6,1.2-1.1,1.7C263.7,415,262.9,415.2,262.1,415.2z"/>
	<path class="st1" d="M283.7,386c0-0.4,0-0.6,0.1-0.8s0.2-0.4,0.5-0.7c0.1-0.1,0.5-0.2,1.1-0.3c0.6-0.1,1.3-0.2,2.1-0.2
		c0.8-0.1,1.7-0.1,2.7-0.2c1,0,1.9-0.1,2.8-0.1c0.9,0,1.7,0,2.4,0c0.7,0,1.2,0,1.4,0c0.5,0,1,0.1,1.6,0.2s1.1,0.3,1.6,0.5
		c0.5,0.2,0.9,0.6,1.2,1c0.3,0.4,0.5,0.9,0.5,1.5c0,0.6-0.2,1-0.6,1.3c-0.4,0.3-0.9,0.5-1.4,0.6c-0.6,0.1-1.1,0.2-1.7,0.2
		c-0.6,0-1.1,0-1.5,0c0,2.3,0,4.6,0.1,6.9c0.1,2.3,0.1,4.6,0.1,6.9c0,0.4,0,1.1,0,2.1c0,1,0,2-0.1,3.1c-0.1,1.1-0.2,2.1-0.3,3
		c-0.1,0.9-0.3,1.6-0.6,1.9c-0.4,0.5-0.8,0.9-1.2,1.2c-0.4,0.2-1,0.4-1.6,0.4c-0.3,0-0.6-0.1-1-0.2c-0.4-0.2-0.7-0.3-0.9-0.5
		c-0.3-0.3-0.6-0.6-0.8-1.1c-0.2-0.5-0.3-1-0.4-1.6c-0.1-0.6-0.1-1.1-0.1-1.7c0-0.6,0-1,0-1.4c-0.1-3-0.2-6.1-0.3-9.2
		c-0.1-3.1-0.1-6.2-0.1-9.2c-0.6,0-1.3,0-1.9,0c-0.6,0-1.2-0.2-1.7-0.4c-0.5-0.2-0.9-0.5-1.2-1C283.9,387.4,283.7,386.8,283.7,386z"
		/>
	<path class="st1" d="M315,415.4c-1.5,0-2.9-0.3-4.2-1c-1.3-0.7-2.3-1.7-3.2-2.9c-0.9-1.3-1.6-2.8-2-4.6c-0.5-1.8-0.7-3.8-0.7-6.1
		c0-5.9,0.9-10.4,2.6-13.4c1.7-3,4.4-4.5,8.1-4.5c1.8,0,3.3,0.4,4.7,1.1c1.4,0.8,2.5,1.8,3.4,3.2c0.9,1.4,1.6,3,2.1,5
		c0.5,2,0.7,4.1,0.7,6.5c0,2.5-0.3,4.7-0.8,6.8c-0.6,2-1.3,3.8-2.3,5.3c-1,1.5-2.2,2.6-3.6,3.4C318.2,415,316.7,415.4,315,415.4z
		 M315.2,409.2c0.5,0,0.9-0.2,1.4-0.6c0.5-0.4,0.9-1,1.2-1.8c0.4-0.8,0.7-1.8,0.9-3c0.2-1.2,0.3-2.6,0.3-4.1c0-1.6-0.1-3-0.3-4.4
		c-0.2-1.4-0.4-2.5-0.8-3.5c-0.3-1-0.7-1.8-1.1-2.4c-0.4-0.6-0.9-0.9-1.4-0.9c-0.5,0-0.9,0.3-1.3,0.8c-0.4,0.5-0.7,1.3-1,2.3
		c-0.3,1-0.5,2.1-0.7,3.5c-0.2,1.3-0.2,2.8-0.2,4.4c0,3.3,0.3,5.8,0.8,7.4C313.5,408.4,314.2,409.2,315.2,409.2z"/>
	<g>
		<path class="st1" d="M203.2,409.9L203.2,409.9c0.8,0,1.4,0.6,1.4,1.4v2.1c0,0.8-0.6,1.4-1.4,1.4h-18.8c-0.8,0-1.4-0.6-1.4-1.4
			v-18.7c0-7,4.3-10.4,9.4-10.4c5,0,9.4,3.5,9.4,10.4v13.9C201.8,409.3,202.5,409.9,203.2,409.9z M189.8,409.9h5.3
			c0.8,0,1.4-0.6,1.4-1.4v-13.9c0-4-1.8-5.5-4-5.5c-2.2,0-4.1,1.5-4.1,5.5v13.9C188.4,409.3,189,409.9,189.8,409.9z"/>
	</g>
</g>
<path class="st1" d="M287.1,503.5H72.9c-6.6,0-12-5.4-12-12v-1.4c0-6.6,5.4-12,12-12h214.1c6.6,0,12,5.4,12,12v1.4
	C299.1,498.1,293.7,503.5,287.1,503.5z"/>
<rect x="158.4" y="482.5" class="st11" width="49.6" height="20.9"/>
<text transform="matrix(1 0 0 1 158.368 498.2794)" class="st12 st13 st14">¡GO!</text>
<g>
	<g>
		<path class="st1" d="M252.9,65.7c0-4.6,1.6-8.8,4.8-12.5c1.3-1.5,5.2-2.7,11.8-3.7c6.6-1,14.6-1.8,24-2.4c9.4-0.6,19.5-1,30.4-1.4
			s21.3-0.6,31.2-0.7c9.9-0.1,18.8-0.1,26.5-0.1s13.2,0,16.2,0h21.1c4.1,0,8.3,0.4,12.8,1.3c4.5,0.8,8.3,2.7,11.5,5.7
			c1.7,1.5,3.1,3.6,4.2,6.4c1.1,2.8,1.9,5.7,2.6,8.7c0.6,3.1,1.1,6,1.3,8.9c0.2,2.9,0.3,5.2,0.3,7.1c0,8.7-1.4,17.2-4.2,25.5
			c-2.8,8.3-7,15.7-12.6,22.2c-5.6,6.5-12.6,11.7-21,15.7c-8.3,4-18,6-29.1,6c-11.7,0-22.5-1.6-32.5-4.7
			c-9.9-3.1-18.4-7.6-25.4-13.5c-7-5.8-12.3-12.9-15.8-21.2c-3.5-8.3-4.2-25.3-2.9-35.6l-12.5,0h-8.6H279c-3.8,0-6,0.9-9.3,0
			c-2.9-0.8-4.2-0.1-7.6-0.7c-2.8-0.4-4.2,0.6-5.6-1.8C254.9,72.4,252.9,69.6,252.9,65.7z M337,85.4c3.2,10,9,17.3,17.4,21.9
			c8.4,4.6,17.9,6.9,28.3,6.9c6,0,10.9-1,14.9-2.9c3.9-1.9,7.1-4.4,9.6-7.5c2.4-3.1,4.2-6.3,5.1-9.7c1-3.4,1.4-13.8,1.4-17
			c-1.9,0-4.1,0-8.3,0c-4.3,0-9.7,0-15,0s-11,0-16.8,0c-5.8,0-6.2-0.1-11.2,0c-5,0.1-5,0.1-17.3,0C341,77.2,334.9,77.3,337,85.4z"/>
		<g>
			<path class="st1" d="M331.2,45.7L331.2,45.7c4.9,0,9,4.1,9,9.2l0,13.9c-0.5,5.1-5.1,9.3-9,9.2h-121c-4.9,0-9-4.1-9-9.2V-55.5
				c0-46.2,27.8-69.2,60.6-69.2c32,0,60.3,23,60.3,69.2v92C322.2,41.5,326.2,45.7,331.2,45.7z M244.6,45.7h34.2c4.9,0,9-4.1,9-9.2
				v-92c0-26.6-11.8-36.3-25.9-36.3c-14.3,0-26.2,9.6-26.2,36.3v92C235.7,41.5,239.7,45.7,244.6,45.7z"/>
		</g>
	</g>
</g>
<g>
	<g>
		<path class="st1" d="M-107.1,737.1c0-4.6,1.6-8.8,4.8-12.5c1.3-1.5,5.2-2.7,11.8-3.7c6.6-1,14.6-1.8,24-2.4
			c9.4-0.6,19.5-1,30.4-1.4c10.9-0.4,21.3-0.6,31.2-0.7c9.9-0.1,18.8-0.1,26.5-0.1s13.2,0,16.2,0h21.1c4.1,0,8.3,0.4,12.8,1.3
			c4.5,0.8,8.3,2.7,11.5,5.7c1.7,1.5,3.1,3.6,4.2,6.4c1.1,2.8,1.9,5.7,2.6,8.7c0.6,3.1,1.1,6,1.3,8.9c0.2,2.9,0.3,5.2,0.3,7.1
			c0,8.7-1.4,17.2-4.2,25.5c-2.8,8.3-7,15.7-12.6,22.2c-5.6,6.5-12.6,11.7-21,15.7c-8.3,4-18,6-29.1,6c-11.7,0-22.5-1.6-32.5-4.7
			c-9.9-3.1-18.4-7.6-25.4-13.5s-12.3-12.9-15.8-21.2c-3.5-8.3-4.2-25.3-2.9-35.6l-12.5,0h-8.6h-7.9c-3.8,0-6,0.9-9.3,0
			c-2.9-0.8-4.2-0.1-7.6-0.7c-2.8-0.4-4.2,0.6-5.6-1.8C-105.2,743.8-107.1,741-107.1,737.1z M-23,756.8c3.2,10,9,17.3,17.4,21.9
			c8.4,4.6,17.9,6.9,28.3,6.9c6,0,10.9-1,14.9-2.9c3.9-1.9,7.1-4.4,9.6-7.5c2.4-3.1,4.2-6.3,5.1-9.7c1-3.4,1.4-13.8,1.4-17
			c-1.9,0-4.1,0-8.3,0c-4.3,0-9.7,0-15,0s-11,0-16.8,0c-5.8,0-6.2-0.1-11.2,0c-5,0.1-5,0.1-17.3,0C-19,748.5-25.1,748.6-23,756.8z"
			/>
	</g>
</g>
</svg>
